<?xml version="1.0" encoding="utf-8"?>
<!-- Generator: Adobe Illustrator 16.0.3, SVG Export Plug-In . SVG Version: 6.00 Build 0)  -->
<!DOCTYPE svg PUBLIC "-//W3C//DTD SVG 1.1//EN" "http://www.w3.org/Graphics/SVG/1.1/DTD/svg11.dtd">
<svg version="1.1" id="Layer_1" xmlns="http://www.w3.org/2000/svg" xmlns:xlink="http://www.w3.org/1999/xlink" x="0px" y="0px"
	 width="65px" height="67.3px" viewBox="0 0 65 67.3" style="enable-background:new 0 0 65 67.3;" xml:space="preserve">
<style type="text/css">
<![CDATA[
	.st0{fill:#7B111F;}
	.st1{fill:url(#SVGID_1_);}
	.st2{fill:url(#SVGID_2_);}
	.st3{fill:url(#SVGID_3_);}
	.st4{fill:#FFFFFF;}
	.st5{fill:#6D7C82;}
]]>
</style>
<path class="st4" d="M33,61.2c0,0-15.4-6.5-22.2-22.4C3.8,22.4,5.3,9.1,5.9,7.6c15-3.9,26.6-3.5,27-3.5l0,0c0,0,0,0,0,0c0,0,0,0,0,0
	l0,0c0.4,0,12-0.4,27,3.5c0.7,1.5,2.1,14.9-4.9,31.3C48.4,54.8,33,61.2,33,61.2l0,3.1"/>
<path class="st5" d="M62.5,5.4c0,0,0,0-2.5,2.2c0.7,1.5,2.1,14.9-4.9,31.3C48.4,54.8,33,61.2,33,61.2v3.1c0,0,16.5-6.3,24.5-24.4
	C64.7,23.5,62.5,5.4,62.5,5.4z"/>
<linearGradient id="SVGID_1_" gradientUnits="userSpaceOnUse" x1="18.0073" y1="64.3599" x2="18.0073" y2="5.4028">
	<stop  offset="0" style="stop-color:#CED4D5"/>
	<stop  offset="1" style="stop-color:#A1ADB4"/>
</linearGradient>
<path class="st1" d="M10.8,38.8C3.8,22.4,5.3,9.1,5.9,7.6C3.4,5.4,3.4,5.4,3.4,5.4S1.2,23.5,8.5,39.9c8,18.1,24.5,24.4,24.5,24.4
	v-3.1C32.9,61.2,17.6,54.8,10.8,38.8z"/>
<linearGradient id="SVGID_2_" gradientUnits="userSpaceOnUse" x1="3.3867" y1="4.4941" x2="62.5469" y2="4.4941">
	<stop  offset="0" style="stop-color:#CED4D5"/>
	<stop  offset="1" style="stop-color:#A1ADB4"/>
</linearGradient>
<path class="st2" d="M33,1.4c-15,0-29.6,4-29.6,4s0,0,2.5,2.2c15-3.9,26.6-3.5,27-3.5l0,0c0,0,0,0,0,0c0,0,0,0,0,0l0,0
	c0.4,0,12-0.4,27,3.5c2.5-2.2,2.5-2.2,2.5-2.2S48,1.4,33,1.4z"/>
<path class="st0" d="M55.1,10.9c0,0-12,1.2-22.2,1.2c-10.2,0-22.2-1.2-22.2-1.2C9,46.9,32,55.6,33,56v0c0,0,0,0,0,0c0,0,0,0,0,0v0
	C33.9,55.6,57,46.9,55.1,10.9z"/>
<linearGradient id="SVGID_3_" gradientUnits="userSpaceOnUse" x1="20.8281" y1="11.4565" x2="48.4904" y2="41.1461">
	<stop  offset="0" style="stop-color:#B61537"/>
	<stop  offset="0.2692" style="stop-color:#AD1534"/>
	<stop  offset="0.6485" style="stop-color:#96132A"/>
	<stop  offset="1" style="stop-color:#7B111F"/>
</linearGradient>
<path class="st3" d="M52.9,13.1c0,0-10.8,1-19.9,1c-9.1,0-19.9-1-19.9-1C11.4,45.5,32.1,53.4,33,53.7v0c0,0,0,0,0,0c0,0,0,0,0,0v0
	C33.8,53.4,54.6,45.5,52.9,13.1z"/>
<polygon class="st4" points="19,39.6 22.9,15.7 28.9,15.7 36.4,39.6 29.7,39.6 26.9,26.8 24.9,39.6 "/>
<polygon class="st4" points="37.3,15.7 33.7,26.1 37,36.4 39.1,26.7 40.9,39.5 46.8,39.5 43.3,15.7 "/>
</svg>
