<?xml version="1.0" encoding="utf-8"?>
<!-- Generator: Adobe Illustrator 16.0.3, SVG Export Plug-In . SVG Version: 6.00 Build 0)  -->
<!DOCTYPE svg PUBLIC "-//W3C//DTD SVG 1.1//EN" "http://www.w3.org/Graphics/SVG/1.1/DTD/svg11.dtd">
<svg version="1.1" id="Layer_1" xmlns="http://www.w3.org/2000/svg" xmlns:xlink="http://www.w3.org/1999/xlink" x="0px" y="0px"
	 width="65px" height="53px" viewBox="0 0 65 53" style="enable-background:new 0 0 65 53;" xml:space="preserve">
<style type="text/css">
<![CDATA[
	.st0{fill:#E5440C;}
]]>
</style>
<polygon class="st0" points="13.2,28.4 13.2,7.6 31.8,0.7 42,3.6 42,32.5 31.8,35.2 13.6,28.6 31.8,31 31.8,6.2 19.6,9 19.6,26.1 
	"/>
<g>
	<path class="st0" d="M0.8,46.7c0-1.8,0.5-3.3,1.5-4.3c1-1,2.3-1.6,3.8-1.6c1,0,1.9,0.2,2.8,0.7c0.8,0.5,1.4,1.2,1.9,2
		c0.4,0.9,0.6,1.9,0.6,3c0,1.1-0.2,2.1-0.7,3c-0.5,0.9-1.1,1.6-1.9,2c-0.8,0.5-1.7,0.7-2.7,0.7c-1,0-2-0.3-2.8-0.8s-1.4-1.2-1.9-2.1
		S0.8,47.7,0.8,46.7z M2.3,46.7c0,1.3,0.4,2.4,1.1,3.2C4.1,50.7,5,51,6.1,51c1.1,0,2-0.4,2.7-1.2s1.1-1.9,1.1-3.3
		c0-0.9-0.2-1.7-0.5-2.4S8.7,43,8.1,42.6c-0.6-0.4-1.2-0.6-2-0.6c-1,0-1.9,0.4-2.7,1.1C2.7,43.9,2.3,45.1,2.3,46.7z"/>
	<path class="st0" d="M12.8,52.1v-7h-1.2v-1.1h1.2v-0.9c0-0.5,0-0.9,0.1-1.2c0.1-0.4,0.4-0.6,0.7-0.9s0.8-0.3,1.4-0.3
		c0.4,0,0.8,0,1.3,0.1l-0.2,1.2c-0.3,0-0.6-0.1-0.8-0.1c-0.4,0-0.7,0.1-0.9,0.3s-0.3,0.5-0.3,1v0.7h1.6v1.1h-1.6v7H12.8z"/>
	<path class="st0" d="M16.2,52.1v-7H15v-1.1h1.2v-0.9c0-0.5,0-0.9,0.1-1.2c0.1-0.4,0.4-0.6,0.7-0.9s0.8-0.3,1.4-0.3
		c0.4,0,0.8,0,1.3,0.1l-0.2,1.2c-0.3,0-0.6-0.1-0.8-0.1c-0.4,0-0.7,0.1-0.9,0.3s-0.3,0.5-0.3,1v0.7h1.6v1.1h-1.6v7H16.2z"/>
	<path class="st0" d="M19.6,42.6V41H21v1.6H19.6z M19.6,52.1v-8H21v8H19.6z"/>
	<path class="st0" d="M27.7,49.2l1.3,0.2c-0.1,0.9-0.5,1.6-1.1,2.2c-0.6,0.5-1.3,0.8-2.2,0.8c-1.1,0-2-0.4-2.7-1.1
		c-0.7-0.7-1-1.7-1-3.1c0-0.9,0.1-1.6,0.4-2.3c0.3-0.7,0.7-1.1,1.3-1.5s1.2-0.5,1.9-0.5c0.9,0,1.6,0.2,2.1,0.7s0.9,1.1,1.1,1.9
		l-1.3,0.2c-0.1-0.5-0.3-0.9-0.7-1.2c-0.3-0.3-0.7-0.4-1.2-0.4c-0.7,0-1.2,0.2-1.7,0.7c-0.4,0.5-0.6,1.3-0.6,2.3
		c0,1.1,0.2,1.9,0.6,2.4c0.4,0.5,1,0.7,1.6,0.7c0.5,0,1-0.2,1.3-0.5C27.3,50.4,27.6,49.8,27.7,49.2z"/>
	<path class="st0" d="M35,49.5l1.4,0.2c-0.2,0.8-0.6,1.5-1.2,1.9c-0.6,0.5-1.4,0.7-2.3,0.7c-1.2,0-2.1-0.4-2.8-1.1s-1-1.7-1-3
		c0-1.4,0.3-2.4,1-3.1c0.7-0.7,1.6-1.1,2.7-1.1c1.1,0,2,0.4,2.6,1.1s1,1.8,1,3.1c0,0.1,0,0.2,0,0.4h-6c0.1,0.9,0.3,1.6,0.7,2
		c0.4,0.5,1,0.7,1.7,0.7c0.5,0,0.9-0.1,1.3-0.4C34.6,50.5,34.8,50.1,35,49.5z M30.6,47.3h4.5c-0.1-0.7-0.2-1.2-0.5-1.5
		c-0.4-0.5-1-0.8-1.7-0.8c-0.6,0-1.2,0.2-1.6,0.6C30.9,46.1,30.6,46.6,30.6,47.3z"/>
	<path class="st0" d="M40.9,49.2l1.4-0.2c0.2,0.8,0.4,1.3,0.8,1.7c0.4,0.3,0.8,0.5,1.4,0.5c0.6,0,1.2-0.2,1.6-0.7s0.7-1,0.7-1.7
		c0-0.6-0.2-1.1-0.6-1.5c-0.4-0.4-0.9-0.6-1.6-0.6c-0.3,0-0.6,0.1-1,0.2l0.2-1.2c0.1,0,0.2,0,0.2,0c0.6,0,1.1-0.2,1.6-0.5
		c0.5-0.3,0.7-0.8,0.7-1.4c0-0.5-0.2-0.9-0.5-1.2c-0.3-0.3-0.8-0.5-1.3-0.5c-0.5,0-1,0.2-1.3,0.5c-0.4,0.3-0.6,0.8-0.7,1.5L41,43.8
		c0.2-0.9,0.5-1.6,1.1-2.1c0.6-0.5,1.3-0.8,2.2-0.8c0.6,0,1.2,0.1,1.7,0.4c0.5,0.3,0.9,0.6,1.2,1.1c0.3,0.4,0.4,0.9,0.4,1.4
		c0,0.5-0.1,0.9-0.4,1.3s-0.6,0.7-1.1,0.9c0.7,0.2,1.2,0.5,1.5,0.9c0.4,0.5,0.5,1.1,0.5,1.8c0,1-0.4,1.8-1.1,2.5
		c-0.7,0.7-1.6,1-2.7,1c-1,0-1.8-0.3-2.4-0.9C41.3,50.9,41,50.1,40.9,49.2z"/>
	<path class="st0" d="M55.9,43.7l-1.4,0.1c-0.1-0.5-0.3-0.9-0.5-1.2c-0.4-0.4-0.8-0.6-1.4-0.6c-0.4,0-0.8,0.1-1.1,0.4
		c-0.4,0.3-0.8,0.8-1,1.4c-0.2,0.6-0.4,1.5-0.4,2.6c0.3-0.5,0.7-0.9,1.2-1.1s1-0.4,1.5-0.4c0.9,0,1.7,0.3,2.3,1c0.6,0.7,1,1.5,1,2.6
		c0,0.7-0.2,1.3-0.5,1.9c-0.3,0.6-0.7,1.1-1.2,1.4c-0.5,0.3-1.1,0.5-1.8,0.5c-1.1,0-2.1-0.4-2.8-1.3c-0.7-0.8-1.1-2.2-1.1-4.1
		c0-2.1,0.4-3.7,1.2-4.7c0.7-0.8,1.6-1.3,2.8-1.3c0.9,0,1.6,0.2,2.1,0.7C55.5,42.2,55.8,42.9,55.9,43.7z M50.4,48.5
		c0,0.5,0.1,0.9,0.3,1.3c0.2,0.4,0.5,0.8,0.8,1c0.4,0.2,0.7,0.3,1.1,0.3c0.6,0,1.1-0.2,1.5-0.7c0.4-0.5,0.6-1.1,0.6-1.9
		c0-0.8-0.2-1.4-0.6-1.8c-0.4-0.4-0.9-0.7-1.5-0.7c-0.6,0-1.1,0.2-1.6,0.7C50.6,47.2,50.4,47.8,50.4,48.5z"/>
	<path class="st0" d="M56.9,49.2l1.4-0.1c0.1,0.7,0.4,1.2,0.7,1.6c0.4,0.3,0.9,0.5,1.4,0.5c0.7,0,1.2-0.2,1.7-0.7
		c0.5-0.5,0.7-1.2,0.7-2c0-0.8-0.2-1.4-0.7-1.8c-0.4-0.4-1-0.7-1.7-0.7c-0.4,0-0.8,0.1-1.2,0.3s-0.6,0.5-0.8,0.8l-1.3-0.2l1.1-5.7
		h5.5v1.3h-4.4l-0.6,3c0.7-0.5,1.4-0.7,2.1-0.7c1,0,1.8,0.3,2.5,1c0.7,0.7,1,1.5,1,2.6c0,1-0.3,1.9-0.9,2.6
		c-0.7,0.9-1.7,1.3-2.9,1.3c-1,0-1.8-0.3-2.5-0.8S56.9,50.1,56.9,49.2z"/>
</g>
</svg>
