<?xml version="1.0" encoding="utf-8"?>
<!-- Generator: Adobe Illustrator 16.0.3, SVG Export Plug-In . SVG Version: 6.00 Build 0)  -->
<!DOCTYPE svg PUBLIC "-//W3C//DTD SVG 1.1//EN" "http://www.w3.org/Graphics/SVG/1.1/DTD/svg11.dtd">
<svg version="1.1" id="Layer_1" xmlns="http://www.w3.org/2000/svg" xmlns:xlink="http://www.w3.org/1999/xlink" x="0px" y="0px"
	 width="65px" height="44.4px" viewBox="0 0 65 44.4" style="enable-background:new 0 0 65 44.4;" xml:space="preserve">
<style type="text/css">
<![CDATA[
	.st0{filter:url(#Adobe_OpacityMaskFilter);}
	.st1{fill:url(#SVGID_2_);}
	.st2{fill:url(#SVGID_3_);}
	.st3{fill:#FFFFFF;}
	.st4{opacity:0.3;mask:url(#SVGID_1_);}
]]>
</style>
<defs>
	<filter id="Adobe_OpacityMaskFilter" filterUnits="userSpaceOnUse" x="1" y="32" width="63" height="11.7">
		
			<feColorMatrix  type="matrix" values="-1 0 0 0 1  0 -1 0 0 1  0 0 -1 0 1  0 0 0 1 0" color-interpolation-filters="sRGB" result="source"/>
	</filter>
</defs>
<mask maskUnits="userSpaceOnUse" x="1" y="32" width="63" height="11.7" id="SVGID_1_">
	<g class="st0">
		
			<radialGradient id="SVGID_2_" cx="31.7544" cy="-8.5996" r="25.1869" gradientTransform="matrix(0.8895 0 0 0.1529 4.2543 39.2126)" gradientUnits="userSpaceOnUse">
			<stop  offset="0" style="stop-color:#000000"/>
			<stop  offset="1" style="stop-color:#FFFFFF"/>
		</radialGradient>
		<ellipse class="st1" cx="32.5" cy="37.9" rx="31.5" ry="5.9"/>
	</g>
</mask>
<ellipse class="st4" cx="32.5" cy="37.9" rx="31.5" ry="5.9"/>
<linearGradient id="SVGID_3_" gradientUnits="userSpaceOnUse" x1="21.6455" y1="4.999" x2="44.1129" y2="34.3056">
	<stop  offset="0" style="stop-color:#B5DF5B"/>
	<stop  offset="1" style="stop-color:#294825"/>
</linearGradient>
<circle class="st2" cx="32.5" cy="19.2" r="18.5"/>
<path class="st3" d="M20.2,33.3c-0.2-0.3-0.1-0.9-0.2-1.5c0,0-0.2-2.6-0.2-4c0-2,0.3-3.8,0.7-5.6c-2.9-3.2-4.4-6.1-5.2-10.6l1.6-2.9
	c0.1,4.1,2.2,8.4,4.4,11.1c1.6-4.2,4.5-7.7,8.1-10.2c0.4-3.4,1.2-6.2,3-9l2.3,0.2c-1.4,2.1-2.5,4.9-3,7.4c3.5-1.8,7.5-2.7,11.6-2.2
	c-0.1-0.2-0.7-1.9-0.8-2.2c0,0,1.6,0.9,2,1.3c1.2,1.2,3.3,4.1,3.3,4.1c-0.1,0-1.6-0.6-1.7-0.6c0.2,1.3,0.4,2.7,0.4,4
	c0,5.3-1.9,10.2-5,14c3-0.8,6.8-2.8,9-5.3c0,0-0.3,1.7-0.7,3.3c-3.7,2.3-6.4,3.8-10.8,4.6c-0.1,0.1-0.3,0.2-0.4,0.4
	c1.7,1.3,4.1,2.7,6.2,3.1l-1.9,1.6c-2.5-0.6-4-1.7-6-3.4c-4.1,2.8-10,4.3-15.5,3.4C21.5,34.3,20.4,33.6,20.2,33.3z M22.4,32.3
	c4.8,0.7,9.3-0.5,13-2.9c0,0,0,0,0,0c-5-0.3-9.5-2.2-13.1-5.4c-0.3,1.3-0.4,2.6-0.4,3.9C21.9,29.4,22.1,30.9,22.4,32.3z M36.3,27.3
	c0.6,0,1.3,0,1.9-0.1c3.9-3.6,6.3-8.8,6.3-14.6c0-1.5-0.2-3-0.5-4.4c-4.6-0.7-9,0.4-12.6,2.7c-0.1,0.7-0.1,1.4-0.1,2.1
	C31.2,18.5,33.2,23.7,36.3,27.3z M22.9,21.7c2.9,2.8,6.6,4.8,10.6,5.4c-2.7-3.9-4.3-8.8-4.3-14.1c0-0.2,0-0.4,0-0.6
	C26.3,14.8,24.1,18,22.9,21.7z"/>
</svg>
