<?xml version="1.0" encoding="utf-8"?>
<!-- Generator: Adobe Illustrator 16.0.3, SVG Export Plug-In . SVG Version: 6.00 Build 0)  -->
<!DOCTYPE svg PUBLIC "-//W3C//DTD SVG 1.1//EN" "http://www.w3.org/Graphics/SVG/1.1/DTD/svg11.dtd">
<svg version="1.1" id="Layer_6" xmlns="http://www.w3.org/2000/svg" xmlns:xlink="http://www.w3.org/1999/xlink" x="0px" y="0px"
	 width="63px" height="58px" viewBox="0 0 63 58" enable-background="new 0 0 63 58" xml:space="preserve">
<symbol  id="brillo" viewBox="-10 -10 20 20">
	<path opacity="0.4" fill="#FFFFFF" enable-background="new    " d="M10,0c0-5.5-4.5-10-10-10S-10-5.5-10,0s4.5,10,10,10
		S10,5.5,10,0z"/>
</symbol>
<symbol  id="manchas" viewBox="-36.473 -35.35 72.946 70.7">
	<path opacity="0.2" fill="#47728A" enable-background="new    " d="M36.473,1.251c0,0.6-0.1,1.2-0.2,1.8c-0.1,0.5-0.1,1-0.2,1.5
		c-1.6,0.7-3.3,1-5.3,0.8c-0.8-0.1-2.1-0.3-1.9,1.4c0.3,2.2,0.9,4.3,2.9,5.399c0.7,0.4,1.4,0.601,2.1,0.801
		c-1,2.699-2.3,5.3-3.8,7.699c-1.1-1.1-2.2-2.199-3.4-3.1c-1.3-0.9-1.5,1.2-1.2,2.1c0.4,1.801,1,3.5,1.5,5.301
		c-1.1,1.3-2.3,2.5-3.5,3.699c0-0.5,0-1,0.1-1.6c0.3-1.9,0.3-3.6-1.9-5.2c0.5,2-1.1,2.5-1.3,3.9c-0.8,6.2-0.9,6.2-6.5,5.2
		c-1.5-0.301-0.6-2.9-2.9-3.101c-2.5-0.2-1.2-2.1-0.8-3.7c0.4-2.199,1.9-4.5,0.1-6.899c-2.8,2.1-6,2-9.2,2.5
		c-2.7,0.399-3.1-1.2-3.3-3.5c-0.2-2.4,0.6-3.4,2.9-3.3c2.1,0.1,2.8-3,5.5-2.7c1.2,0.1,3.5-1.2,6-2.4c-5.6-2-11.3,0.2-15.6-3.5
		c3.4,1.9,7.2-0.1,10.6,1.2c0.5,0.2,1.5,0.4,1.7-0.5c0.1-0.6-0.2-1.4-0.7-1.8c-1.1-1.3-2.6-1.3-4-1.601c-5.3-0.8-9.3-4-13-7.699
		c3.6-0.101,6.6,2.1,9.9,3c1,0.3,2.3,1.1,2.9,0c0.9-1.601-0.8-2.101-1.7-2.7c-5.3-3.101-10.6-6.2-15.9-9.3
		c-0.9-0.5-1.9-1.5-2.6,0.199c-0.4,1-0.5,2.2,0.6,2.5c3.2,0.7,2.4,3.301,2,5.2c-0.4,2-0.2,2.7,1.7,2.601c2.5-0.2,3,2.399,2.7,3.399
		c-0.5,1.5-3.2,2.601-4.3,1.8c-4.6-3.3-3.2,0.2-3.1,2.601c0,0.3-0.3,0.7-0.9,1.7c-1.9-3.801-2.1-7.9-4.3-11.101
		c-0.6-0.899-1-2.3-2.1-2.2c-1.7,0.2-0.7,1.801-0.9,2.7c-0.6,3.2,0,6.4,0.4,9.601c0.3,2.1,0.6,4.199-1.6,5.6c-1.5,1-0.7,1.9,0.2,2.7
		c3.2,2.8,5.1,7,9,9.1c1.2,0.601,1.1,2.4,1.6,3.601c1.3,2.899,1.6,5.199-0.7,7.899c-0.3,0.3,0.3,1.3,0.7,2.5
		c-4.3-1.899-8.2-4.6-11.5-7.899c0-0.2-0.1-0.5-0.2-0.801c-0.3-0.699-0.8-0.899-1.4-0.899c-1.6-1.8-3-3.7-4.2-5.8
		c4.6,1,8.2,4.8,13.2,4.899c-1.6-5.3-6.6-3.899-9.7-6c0.4-1.8,2.3-0.2,3-1.6c-1.4-3.8-5-4.101-7.7-3.4c-0.9,0.2-1.4,0.101-1.7-0.1
		c-0.3-0.9-0.6-1.8-0.9-2.8c0.6-4.101,1.8-7.7,0.3-11c-2.2-4.7,4.5-8.101,3.6-13.301c-0.5-3.1-0.4-6,0.2-8.399
		c2.3-3.9,5.3-7.4,8.8-10.2c0.4,1.7,1,3.4,1.9,5c1.3-1.4,0.9-2.9,0.9-4.2c0-1,0-2,0.1-3c0.6-0.399,1.2-0.8,1.8-1.2c0,3,0,6,0,9
		c0,1.301,0.3,2.7,1.4,3.301c0.9,0.5,2.7,3,2.7-1c0-1.801,2.3-4,3.6-2.601c3.1,3.3,5.8-0.8,8.7,0c0.7,0.2,2.2-2.3,2.8,0.2
		c0.5,2-1.4,2.2-2.6,2.3c-3,0.4-6.1,0.601-9.1,0.8c-0.9,0.101-1.8,0-1.5,1.2c0.3,1.2,0.2,2.7,1.2,3.7c2.7-3.1,1.8,0.5,2.3,1.4
		c0.3,0.6,0.8,1.6,1.3,1.1c2.8-2.7,3.3,0.6,4.8,1.8c2.4,1.8,4.5,4.2,7.8,4.8c-0.1-3.3-3.6-4.5-3.7-7.699c1.7,0.5,1.5,3.1,3.6,2.8
		c0.8-1.4-0.5-3-0.2-4.7c0.2-1,0.2-2.2,1.1-2.5c1.2-0.4,1.4,0.9,1.9,1.6c4.4,6.2,8.4,12.7,9.6,20.601c1,6.399,4.5,1.2,6.2,0.899
		c3.1-0.5-0.1-1.8-0.4-2.8c-0.1-0.3-0.1-0.6-0.1-0.899c-0.4,0.699-1.1,1-2.5,0c-1.9-1.4-2.8-4.7-2.1-5c5.3-2.5,3-6.7,4-10
		c1.4-4.5,1.1-9.301,3.3-13.601c0.2,0.2,0.5,0.3,0.7,0.5c-1.1,6.2-1,12.601-1.8,18.8c-0.3,2.301-0.7,4.601-1.1,6.801
		c1.7-5,6.9-8.101,6.6-14.101c1.7,6.7-1.7,12.3-3.9,18c3.6-0.899,7-2,10.3-3.399c0,0.5,0.1,1,0.1,1.5c-0.4,0.399-0.8,0.8-1.2,1.199
		c-0.6,0.601-1.2,1.301-0.7,2.2C35.073,1.65,35.773,1.451,36.473,1.251z M14.773,4.251c-0.5-1.601-0.2-3.3-2.3-3.3
		c-0.8,1.1-2.5-1.301-2.4,1c0.1,2.3,1.6,3.6,3.8,3.899C14.673,5.851,15.173,5.551,14.773,4.251z"/>
</symbol>
<g>
	<radialGradient id="SVGID_2_" cx="-8.3999" cy="816.8398" r="10" gradientUnits="userSpaceOnUse">
		<stop  offset="0" style="stop-color:#FFFFFF"/>
		<stop  offset="1" style="stop-color:#000000"/>
	</radialGradient>
	<path fill="url(#SVGID_2_)" d="M1.6,816.84c0,5.5-4.5,10-10,10s-10-4.5-10-10s4.5-10,10-10S1.6,811.34,1.6,816.84z"/>
</g>
<g id="detrás" opacity="0.8">
	<g id="detrás_1_">
		<g>
			
				<radialGradient id="SVGID_3_" cx="27.3838" cy="-112.6455" r="6.9191" gradientTransform="matrix(1 0 0 -0.8 8.3999 -41.1456)" gradientUnits="userSpaceOnUse">
				<stop  offset="0" style="stop-color:#FFFFFF"/>
				<stop  offset="1" style="stop-color:#78B0CF"/>
			</radialGradient>
			<circle fill="url(#SVGID_3_)" stroke="#62A3B2" stroke-miterlimit="10" cx="35.8" cy="49" r="6.9"/>
			
				<use xlink:href="#manchas"  width="72.946" height="70.7" x="-36.473" y="-35.35" transform="matrix(0.148 0 0 -0.148 35.791 48.9717)" overflow="visible"/>
			
				<use xlink:href="#brillo"  width="20" height="20" x="-10" y="-10" transform="matrix(0.0934 0 0 -0.1482 34.7539 44.4873)" overflow="visible"/>
			
				<use xlink:href="#brillo"  width="20" height="20" x="-10" y="-10" transform="matrix(0.0934 0 0 -0.1482 36.2021 53.6045)" overflow="visible"/>
		</g>
		<g>
			
				<radialGradient id="SVGID_4_" cx="8.0313" cy="-91.0742" r="5.858" gradientTransform="matrix(1 0 0 -0.8 8.3999 -45.4591)" gradientUnits="userSpaceOnUse">
				<stop  offset="0" style="stop-color:#FFFFFF"/>
				<stop  offset="1" style="stop-color:#78B0CF"/>
			</radialGradient>
			<circle fill="url(#SVGID_4_)" stroke="#62A3B2" stroke-miterlimit="10" cx="16.4" cy="27.4" r="5.9"/>
			
				<use xlink:href="#manchas"  width="72.946" height="70.7" x="-36.473" y="-35.35" transform="matrix(0.1254 0 0 -0.1254 16.4375 27.4038)" overflow="visible"/>
			
				<use xlink:href="#brillo"  width="20" height="20" x="-10" y="-10" transform="matrix(0.0791 0 0 -0.1256 15.5586 23.6055)" overflow="visible"/>
			
				<use xlink:href="#brillo"  width="20" height="20" x="-10" y="-10" transform="matrix(0.0791 0 0 -0.1256 16.7852 31.3281)" overflow="visible"/>
		</g>
		<g>
			
				<radialGradient id="SVGID_5_" cx="32.5293" cy="-86.0146" r="6.3889" gradientTransform="matrix(1 0 0 -0.8 8.3999 -46.4718)" gradientUnits="userSpaceOnUse">
				<stop  offset="0" style="stop-color:#FFFFFF"/>
				<stop  offset="1" style="stop-color:#78B0CF"/>
			</radialGradient>
			<circle fill="url(#SVGID_5_)" stroke="#62A3B2" stroke-miterlimit="10" cx="40.9" cy="22.3" r="6.4"/>
			
				<use xlink:href="#manchas"  width="72.946" height="70.7" x="-36.473" y="-35.35" transform="matrix(0.1367 0 0 -0.1367 40.9355 22.3408)" overflow="visible"/>
			
				<use xlink:href="#brillo"  width="20" height="20" x="-10" y="-10" transform="matrix(0.0863 0 0 -0.1369 39.9775 18.1987)" overflow="visible"/>
			
				<use xlink:href="#brillo"  width="20" height="20" x="-10" y="-10" transform="matrix(0.0863 0 0 -0.1369 41.3154 26.6191)" overflow="visible"/>
		</g>
	</g>
	<g id="delante_1_">
		<g>
			
				<radialGradient id="SVGID_6_" cx="24.0547" cy="-95.5781" r="14.5344" gradientTransform="matrix(1 0 0 -0.8 8.3999 -44.5626)" gradientUnits="userSpaceOnUse">
				<stop  offset="0" style="stop-color:#FFFFFF"/>
				<stop  offset="1" style="stop-color:#78B0CF"/>
			</radialGradient>
			<circle fill="url(#SVGID_6_)" stroke="#62A3B2" stroke-miterlimit="10" cx="32.5" cy="31.9" r="14.5"/>
			
				<use xlink:href="#manchas"  width="72.946" height="70.7" x="-36.473" y="-35.35" transform="matrix(0.3109 0 0 -0.3109 32.4707 31.8848)" overflow="visible"/>
			
				<use xlink:href="#brillo"  width="20" height="20" x="-10" y="-10" transform="matrix(0.1962 0 0 -0.3113 30.292 22.4692)" overflow="visible"/>
			
				<use xlink:href="#brillo"  width="20" height="20" x="-10" y="-10" transform="matrix(0.1962 0 0 -0.3113 33.333 41.6104)" overflow="visible"/>
		</g>
		<path opacity="0.2" fill="#4C6E7F" enable-background="new    " d="M35,46.4c-0.7,0.1-1.3,0.199-2,0.199
			c-4.3,0.4-8.5-5.6-9.4-13.5C22.8,25,25.6,18,30,17.4l2-0.2c-4.4,0.6-7.2,7.6-6.3,15.7C26.5,40.8,30.7,46.8,35,46.4z"/>
		<path opacity="0.2" fill="#4C6E7F" enable-background="new    " d="M36.6,46.1C36.2,46.2,36.4,46.2,35.7,46.3
			c-3.601,0.4-8.1-5.2-9-13.1C25.8,25,28.9,18.1,33,17.3l0.6-0.1c-4.399,0.6-7.2,7.6-6.3,15.7C28.2,40.8,32.3,46.5,36.6,46.1z"/>
	</g>
</g>
<g id="delante">
	<g id="arriba">
		<g>
			
				<radialGradient id="SVGID_7_" cx="-8120.9717" cy="8128.0371" r="10.9756" gradientTransform="matrix(1 0 0 -0.8 8145.9629 6515.6816)" gradientUnits="userSpaceOnUse">
				<stop  offset="0" style="stop-color:#FFFFFF"/>
				<stop  offset="1" style="stop-color:#78B0CF"/>
			</radialGradient>
			<circle fill="url(#SVGID_7_)" stroke="#62A3B2" stroke-miterlimit="10" cx="24.8" cy="13.1" r="11"/>
			
				<use xlink:href="#manchas"  width="72.946" height="70.7" x="-36.473" y="-35.35" transform="matrix(-0.0306 0.2329 0.2329 0.0306 24.7876 13.0986)" overflow="visible"/>
			
				<use xlink:href="#brillo"  width="20" height="20" x="-10" y="-10" transform="matrix(-0.0193 0.147 0.2332 0.0306 32.0557 12.3936)" overflow="visible"/>
			
				<use xlink:href="#brillo"  width="20" height="20" x="-10" y="-10" transform="matrix(-0.0193 0.147 0.2332 0.0306 17.4155 12.7871)" overflow="visible"/>
		</g>
		<g id="jet" opacity="0.7">
			
				<polyline fill="none" stroke="#FFFFFF" stroke-width="1.5" stroke-linecap="round" stroke-linejoin="round" stroke-miterlimit="10" points="
				21.3,9.9 24.1,13.2 21.3,16.5 			"/>
			
				<polyline fill="none" stroke="#FFFFFF" stroke-width="1.5" stroke-linecap="round" stroke-linejoin="round" stroke-miterlimit="10" points="
				24.4,9.9 27.2,13.2 24.4,16.5 			"/>
			
				<line fill="none" stroke="#FFFFFF" stroke-width="1.5" stroke-linecap="round" stroke-linejoin="round" stroke-miterlimit="10" x1="24.1" y1="13.2" x2="18.8" y2="13.2"/>
			
				<line fill="none" stroke="#FFFFFF" stroke-width="1.5" stroke-linecap="round" stroke-linejoin="round" stroke-miterlimit="10" x1="30.3" y1="13.2" x2="27.2" y2="13.2"/>
		</g>
	</g>
	<g id="izda">
		<g>
			
				<radialGradient id="SVGID_8_" cx="-8214.4336" cy="8063.3203" r="10.9747" gradientTransform="matrix(1.0375 0 0 -0.83 8536.0957 6731.8633)" gradientUnits="userSpaceOnUse">
				<stop  offset="0" style="stop-color:#FFFFFF"/>
				<stop  offset="1" style="stop-color:#78B0CF"/>
			</radialGradient>
			<circle fill="url(#SVGID_8_)" stroke="#62A3B2" stroke-miterlimit="10" cx="13.7" cy="39.4" r="11.4"/>
			
				<use xlink:href="#manchas"  width="72.946" height="70.7" x="-36.473" y="-35.35" transform="matrix(-0.218 -0.1089 -0.1089 0.218 13.6851 39.3633)" overflow="visible"/>
			
				<use xlink:href="#brillo"  width="20" height="20" x="-10" y="-10" transform="matrix(-0.1376 -0.0687 -0.1091 0.2183 11.9131 46.7285)" overflow="visible"/>
			
				<use xlink:href="#brillo"  width="20" height="20" x="-10" y="-10" transform="matrix(-0.1376 -0.0687 -0.1091 0.2183 16.4883 32.2393)" overflow="visible"/>
		</g>
		<g id="fijo_y_móvil" opacity="0.7">
			<path fill="#FFFFFF" d="M7.6,36.3c0.3-0.3,0.6-0.399,1-0.5c0.3,0,0.7-0.1,0.9,0.101c0.3,0.3,0.4,0.399,0.3,0.8
				c-0.2,0.2-0.2,0.6-0.2,0.8c-0.1,0.2-0.1,0.4-0.3,0.6c-0.1,0.101-0.3,0-0.4,0c-0.2,0-0.4-0.1-0.6-0.1c-0.1,0.1-0.2,0-0.3,0.1
				L7.9,38.2c0,0.1,0.1,0.1,0,0.1c-0.1,0.101,0,0.101-0.1,0.2c-0.1,0.2-0.1,0.5-0.2,0.7c-0.1,0.399-0.1,0.8,0,1.2
				c0,0.199,0,0.399,0.1,0.6c0,0.1,0,0.2,0,0.3c0,0.101,0.1,0.101,0.1,0.2s0,0.1,0.1,0.2C8,41.8,8,41.8,8.1,41.8c0.2,0,0.4,0,0.6,0
				c0.2-0.1,0.3,0,0.5,0c0.2,0,0.2,0.3,0.2,0.5c0,0.3,0.2,0.9,0.3,1.101c0,0.1,0.1,0.1,0.1,0.199c0,0.101,0,0.2-0.1,0.301
				C9.6,44,9.5,44,9.3,44.1C9.2,44.2,9,44.3,8.9,44.3c-0.4,0-0.8-0.2-1.2-0.399C7.5,43.8,7.4,43.6,7.2,43.5C7.1,43.4,7,43.4,7,43.3
				c0-0.1,0-0.1-0.1-0.2C7,42.8,7,42.6,6.8,42.3c-0.1-0.2-0.1-0.5-0.2-0.7C6.5,41.4,6.5,41.2,6.5,40.9c-0.1-0.5-0.1-1-0.1-1.4
				c0-0.5,0.1-0.9,0.3-1.4c0.1-0.3,0.2-0.699,0.4-1L7.2,37c-0.1-0.1,0.1-0.2,0.1-0.3C7.4,36.6,7.5,36.5,7.6,36.3"/>
			<path fill="#FFFFFF" d="M20.8,36.9V43.3c0,0.101-0.1,0.4-0.3,0.5C20.4,43.9,20.1,44,20,44h-3.2c-0.3,0-0.4-0.1-0.5-0.3
				c-0.3,0-0.3-0.3-0.3-0.4V36.9c0-0.301,0-0.4,0.3-0.5c0.1-0.301,0.3-0.301,0.5-0.301H20c0.1,0,0.4,0,0.5,0.301
				C20.7,36.5,20.8,36.6,20.8,36.9 M18.9,37L18.9,37c0-0.1,0-0.1,0-0.1h-1.1c0,0-0.1,0-0.1,0.1h0.1H18.9z M20.1,42.2v-4.4
				c0,0,0,0,0-0.1c-0.1,0-0.1,0-0.1,0h-3.2c-0.1,0-0.1,0-0.1,0c-0.1,0.1-0.1,0.1-0.1,0.1v4.4c0,0.1,0,0.1,0.1,0.1
				c0,0,0,0.101,0.1,0.101H20c0,0,0-0.101,0.1-0.101C20.1,42.3,20.1,42.3,20.1,42.2z M18.7,43.5c0.1-0.1,0.3-0.1,0.3-0.3
				c0-0.101-0.1-0.3-0.3-0.4c0-0.1-0.1-0.1-0.3-0.1c-0.2,0-0.3,0-0.4,0.1c-0.1,0.101-0.1,0.3-0.1,0.4c0,0.1,0,0.1,0.1,0.3
				c0.1,0.1,0.3,0.1,0.4,0.1S18.7,43.7,18.7,43.5z"/>
			<path fill="#FFFFFF" d="M12.1,42.3V40.9h-1.4v-0.7h1.4v-1.4h0.7v1.4h1.4v0.7h-1.4V42.3H12.1z"/>
		</g>
	</g>
	<g id="dcha">
		<g>
			
				<radialGradient id="SVGID_9_" cx="41.3008" cy="-100.9727" r="10.9756" gradientTransform="matrix(1 0 0 -0.8 8.3999 -43.4776)" gradientUnits="userSpaceOnUse">
				<stop  offset="0" style="stop-color:#FFFFFF"/>
				<stop  offset="1" style="stop-color:#78B0CF"/>
			</radialGradient>
			<circle fill="url(#SVGID_9_)" stroke="#62A3B2" stroke-miterlimit="10" cx="49.7" cy="37.3" r="11"/>
			
				<use xlink:href="#manchas"  width="72.946" height="70.7" x="-36.473" y="-35.35" transform="matrix(0.2349 0 0 -0.2349 49.7305 37.3096)" overflow="visible"/>
			
				<use xlink:href="#brillo"  width="20" height="20" x="-10" y="-10" transform="matrix(0.1482 0 0 -0.2352 48.085 30.1963)" overflow="visible"/>
			
				<use xlink:href="#brillo"  width="20" height="20" x="-10" y="-10" transform="matrix(0.1482 0 0 -0.2352 50.3828 44.6602)" overflow="visible"/>
		</g>
		<g id="TI_1_">
			<g>
				<rect x="48.8" y="35.7" fill="none" width="3" height="2.7"/>
				<path fill="#FFFFFF" d="M49.9,38h-0.4v-1.8h-0.7v-0.3h1.8v0.3H49.9V38z"/>
				<path fill="#FFFFFF" d="M50.9,38v-2.2H51.3V38H50.9z"/>
			</g>
			<path id="TI" fill="#FFFFFF" d="M55,34.9V40.3c0,0.2-0.1,0.3-0.3,0.5C54.6,40.9,54.4,41,54.2,41H51.6c0,0.1,0,0.2,0,0.4
				c0.101,0.1,0.101,0.199,0.2,0.3c0,0.1,0.101,0.2,0.101,0.2C51.9,42,51.8,42.1,51.8,42.1C51.7,42.2,51.7,42.2,51.6,42.2h-2.5
				c-0.1,0-0.199,0-0.199-0.101C48.8,42.1,48.8,42,48.8,41.9c0,0,0-0.101,0.101-0.2c0-0.101,0.1-0.2,0.1-0.3
				c0.1-0.2,0.1-0.301,0.1-0.4H46.4c-0.2,0-0.301-0.1-0.5-0.2c-0.101-0.2-0.2-0.3-0.2-0.5V34.9c0-0.2,0.1-0.4,0.2-0.5
				c0.199-0.2,0.3-0.301,0.5-0.301H54.3c0.2,0,0.4,0.101,0.5,0.301C54.9,34.5,55,34.7,55,34.9 M54.4,39v-4.1
				C54.4,34.8,54.3,34.8,54.3,34.8s0-0.1-0.1-0.1h-7.9c0,0,0,0.1-0.1,0.1c0,0,0,0,0,0.101V39c0,0,0,0,0,0.1c0.1,0,0.1,0,0.1,0h7.9
				c0.1,0,0.1,0,0.1,0C54.3,39,54.4,39,54.4,39z"/>
		</g>
	</g>
</g>
</svg>
